<svg width="403" height="195" viewBox="0 0 403 195" fill="currentColor" xmlns="http://www.w3.org/2000/svg">
    <path d="M64.1307 23.1818V93H55.9489L17.9034 38.1818H17.2216V93H8.76705V23.1818H16.9489L55.1307 78.1364H55.8125V23.1818H64.1307ZM83.9119 93H75.0483L100.685 23.1818H109.412L135.048 93H126.185L105.321 34.2273H104.776L83.9119 93ZM87.1847 65.7273H122.912V73.2273H87.1847V65.7273ZM145.923 23.1818H156.014L179.741 81.1364H180.56L204.287 23.1818H214.378V93H206.469V39.9545H205.787L183.969 93H176.332L154.514 39.9545H153.832V93H145.923V23.1818ZM180.151 14.4545C178.582 14.4545 177.23 13.9205 176.094 12.8523C174.98 11.7841 174.423 10.5 174.423 9C174.423 7.5 174.98 6.21591 176.094 5.14772C177.23 4.07954 178.582 3.54545 180.151 3.54545C181.719 3.54545 183.06 4.07954 184.173 5.14772C185.31 6.21591 185.878 7.5 185.878 9C185.878 10.5 185.31 11.7841 184.173 12.8523C183.06 13.9205 181.719 14.4545 180.151 14.4545ZM231.33 93V23.1818H273.466V30.6818H239.784V54.2727H271.284V61.7727H239.784V85.5H274.011V93H231.33ZM252.33 14.4545C250.761 14.4545 249.409 13.9205 248.273 12.8523C247.159 11.7841 246.602 10.5 246.602 9C246.602 7.5 247.159 6.21591 248.273 5.14772C249.409 4.07954 250.761 3.54545 252.33 3.54545C253.898 3.54545 255.239 4.07954 256.352 5.14772C257.489 6.21591 258.057 7.5 258.057 9C258.057 10.5 257.489 11.7841 256.352 12.8523C255.239 13.9205 253.898 14.4545 252.33 14.4545ZM326.886 40.6364C326.477 37.1818 324.818 34.5 321.909 32.5909C319 30.6818 315.432 29.7273 311.205 29.7273C308.114 29.7273 305.409 30.2273 303.091 31.2273C300.795 32.2273 299 33.6023 297.705 35.3523C296.432 37.1023 295.795 39.0909 295.795 41.3182C295.795 43.1818 296.239 44.7841 297.125 46.125C298.034 47.4432 299.193 48.5455 300.602 49.4318C302.011 50.2955 303.489 51.0114 305.034 51.5795C306.58 52.125 308 52.5682 309.295 52.9091L316.386 54.8182C318.205 55.2955 320.227 55.9545 322.455 56.7955C324.705 57.6364 326.852 58.7841 328.898 60.2386C330.966 61.6705 332.67 63.5114 334.011 65.7614C335.352 68.0114 336.023 70.7727 336.023 74.0455C336.023 77.8182 335.034 81.2273 333.057 84.2727C331.102 87.3182 328.239 89.7386 324.466 91.5341C320.716 93.3295 316.159 94.2273 310.795 94.2273C305.795 94.2273 301.466 93.4205 297.807 91.8068C294.17 90.1932 291.307 87.9432 289.216 85.0568C287.148 82.1705 285.977 78.8182 285.705 75H294.432C294.659 77.6364 295.545 79.8182 297.091 81.5455C298.659 83.25 300.636 84.5227 303.023 85.3636C305.432 86.1818 308.023 86.5909 310.795 86.5909C314.023 86.5909 316.92 86.0682 319.489 85.0227C322.057 83.9545 324.091 82.4773 325.591 80.5909C327.091 78.6818 327.841 76.4545 327.841 73.9091C327.841 71.5909 327.193 69.7045 325.898 68.25C324.602 66.7955 322.898 65.6136 320.784 64.7045C318.67 63.7955 316.386 63 313.932 62.3182L305.341 59.8636C299.886 58.2955 295.568 56.0568 292.386 53.1477C289.205 50.2386 287.614 46.4318 287.614 41.7273C287.614 37.8182 288.67 34.4091 290.784 31.5C292.92 28.5682 295.784 26.2955 299.375 24.6818C302.989 23.0455 307.023 22.2273 311.477 22.2273C315.977 22.2273 319.977 23.0341 323.477 24.6477C326.977 26.2386 329.75 28.4205 331.795 31.1932C333.864 33.9659 334.955 37.1136 335.068 40.6364H326.886ZM310.795 14.4545C309.227 14.4545 307.875 13.9205 306.739 12.8523C305.625 11.7841 305.068 10.5 305.068 9C305.068 7.5 305.625 6.21591 306.739 5.14772C307.875 4.07954 309.227 3.54545 310.795 3.54545C312.364 3.54545 313.705 4.07954 314.818 5.14772C315.955 6.21591 316.523 7.5 316.523 9C316.523 10.5 315.955 11.7841 314.818 12.8523C313.705 13.9205 312.364 14.4545 310.795 14.4545ZM388.105 40.6364C387.696 37.1818 386.037 34.5 383.128 32.5909C380.219 30.6818 376.651 29.7273 372.423 29.7273C369.332 29.7273 366.628 30.2273 364.31 31.2273C362.014 32.2273 360.219 33.6023 358.923 35.3523C357.651 37.1023 357.014 39.0909 357.014 41.3182C357.014 43.1818 357.457 44.7841 358.344 46.125C359.253 47.4432 360.412 48.5455 361.821 49.4318C363.23 50.2955 364.707 51.0114 366.253 51.5795C367.798 52.125 369.219 52.5682 370.514 52.9091L377.605 54.8182C379.423 55.2955 381.446 55.9545 383.673 56.7955C385.923 57.6364 388.071 58.7841 390.116 60.2386C392.185 61.6705 393.889 63.5114 395.23 65.7614C396.571 68.0114 397.241 70.7727 397.241 74.0455C397.241 77.8182 396.253 81.2273 394.276 84.2727C392.321 87.3182 389.457 89.7386 385.685 91.5341C381.935 93.3295 377.378 94.2273 372.014 94.2273C367.014 94.2273 362.685 93.4205 359.026 91.8068C355.389 90.1932 352.526 87.9432 350.435 85.0568C348.366 82.1705 347.196 78.8182 346.923 75H355.651C355.878 77.6364 356.764 79.8182 358.31 81.5455C359.878 83.25 361.855 84.5227 364.241 85.3636C366.651 86.1818 369.241 86.5909 372.014 86.5909C375.241 86.5909 378.139 86.0682 380.707 85.0227C383.276 83.9545 385.31 82.4773 386.81 80.5909C388.31 78.6818 389.06 76.4545 389.06 73.9091C389.06 71.5909 388.412 69.7045 387.116 68.25C385.821 66.7955 384.116 65.6136 382.003 64.7045C379.889 63.7955 377.605 63 375.151 62.3182L366.56 59.8636C361.105 58.2955 356.787 56.0568 353.605 53.1477C350.423 50.2386 348.832 46.4318 348.832 41.7273C348.832 37.8182 349.889 34.4091 352.003 31.5C354.139 28.5682 357.003 26.2955 360.594 24.6818C364.207 23.0455 368.241 22.2273 372.696 22.2273C377.196 22.2273 381.196 23.0341 384.696 24.6477C388.196 26.2386 390.969 28.4205 393.014 31.1932C395.082 33.9659 396.173 37.1136 396.287 40.6364H388.105Z" fill="currentColor"/>
    <path d="M122.12 116.091V151H118.029L99.0064 123.591H98.6655V151H94.4382V116.091H98.5291L117.62 143.568H117.961V116.091H122.12ZM132.011 151H127.579L140.397 116.091H144.761L157.579 151H153.147L142.715 121.614H142.442L132.011 151ZM133.647 137.364H151.511V141.114H133.647V137.364ZM163.016 116.091H168.062L179.925 145.068H180.335L192.198 116.091H197.244V151H193.289V124.477H192.948L182.039 151H178.221L167.312 124.477H166.971V151H163.016V116.091ZM205.719 151V116.091H226.788V119.841H209.947V131.636H225.697V135.386H209.947V147.25H227.06V151H205.719ZM253.498 124.818C253.293 123.091 252.464 121.75 251.009 120.795C249.555 119.841 247.771 119.364 245.657 119.364C244.112 119.364 242.759 119.614 241.6 120.114C240.452 120.614 239.555 121.301 238.907 122.176C238.271 123.051 237.952 124.045 237.952 125.159C237.952 126.091 238.174 126.892 238.617 127.562C239.072 128.222 239.651 128.773 240.356 129.216C241.06 129.648 241.799 130.006 242.572 130.29C243.344 130.562 244.055 130.784 244.702 130.955L248.248 131.909C249.157 132.148 250.168 132.477 251.282 132.898C252.407 133.318 253.481 133.892 254.504 134.619C255.538 135.335 256.39 136.256 257.06 137.381C257.731 138.506 258.066 139.886 258.066 141.523C258.066 143.409 257.572 145.114 256.583 146.636C255.606 148.159 254.174 149.369 252.288 150.267C250.413 151.165 248.134 151.614 245.452 151.614C242.952 151.614 240.788 151.21 238.958 150.403C237.14 149.597 235.708 148.472 234.663 147.028C233.629 145.585 233.043 143.909 232.907 142H237.271C237.384 143.318 237.827 144.409 238.6 145.273C239.384 146.125 240.373 146.761 241.566 147.182C242.771 147.591 244.066 147.795 245.452 147.795C247.066 147.795 248.515 147.534 249.799 147.011C251.083 146.477 252.1 145.739 252.85 144.795C253.6 143.841 253.975 142.727 253.975 141.455C253.975 140.295 253.651 139.352 253.004 138.625C252.356 137.898 251.504 137.307 250.447 136.852C249.39 136.398 248.248 136 247.021 135.659L242.725 134.432C239.998 133.648 237.839 132.528 236.248 131.074C234.657 129.619 233.862 127.716 233.862 125.364C233.862 123.409 234.39 121.705 235.447 120.25C236.515 118.784 237.947 117.648 239.742 116.841C241.549 116.023 243.566 115.614 245.793 115.614C248.043 115.614 250.043 116.017 251.793 116.824C253.543 117.619 254.93 118.71 255.952 120.097C256.987 121.483 257.532 123.057 257.589 124.818H253.498Z" fill="currentColor"/>
    <path d="M161.823 159.091H166.868L178.732 188.068H179.141L191.004 159.091H196.05V194H192.095V167.477H191.754L180.845 194H177.027L166.118 167.477H165.777V194H161.823V159.091ZM204.526 194V159.091H225.594V162.841H208.753V174.636H224.503V178.386H208.753V190.25H225.867V194H204.526ZM252.304 167.818C252.1 166.091 251.27 164.75 249.816 163.795C248.361 162.841 246.577 162.364 244.463 162.364C242.918 162.364 241.566 162.614 240.406 163.114C239.259 163.614 238.361 164.301 237.713 165.176C237.077 166.051 236.759 167.045 236.759 168.159C236.759 169.091 236.98 169.892 237.423 170.562C237.878 171.222 238.458 171.773 239.162 172.216C239.867 172.648 240.605 173.006 241.378 173.29C242.151 173.562 242.861 173.784 243.509 173.955L247.054 174.909C247.963 175.148 248.975 175.477 250.088 175.898C251.213 176.318 252.287 176.892 253.31 177.619C254.344 178.335 255.196 179.256 255.867 180.381C256.537 181.506 256.872 182.886 256.872 184.523C256.872 186.409 256.378 188.114 255.389 189.636C254.412 191.159 252.98 192.369 251.094 193.267C249.219 194.165 246.941 194.614 244.259 194.614C241.759 194.614 239.594 194.21 237.764 193.403C235.946 192.597 234.514 191.472 233.469 190.028C232.435 188.585 231.85 186.909 231.713 185H236.077C236.191 186.318 236.634 187.409 237.406 188.273C238.191 189.125 239.179 189.761 240.372 190.182C241.577 190.591 242.872 190.795 244.259 190.795C245.872 190.795 247.321 190.534 248.605 190.011C249.889 189.477 250.906 188.739 251.656 187.795C252.406 186.841 252.781 185.727 252.781 184.455C252.781 183.295 252.458 182.352 251.81 181.625C251.162 180.898 250.31 180.307 249.253 179.852C248.196 179.398 247.054 179 245.827 178.659L241.531 177.432C238.804 176.648 236.645 175.528 235.054 174.074C233.463 172.619 232.668 170.716 232.668 168.364C232.668 166.409 233.196 164.705 234.253 163.25C235.321 161.784 236.753 160.648 238.548 159.841C240.355 159.023 242.372 158.614 244.6 158.614C246.85 158.614 248.85 159.017 250.6 159.824C252.35 160.619 253.736 161.71 254.759 163.097C255.793 164.483 256.338 166.057 256.395 167.818H252.304ZM282.914 167.818C282.709 166.091 281.879 164.75 280.425 163.795C278.97 162.841 277.186 162.364 275.073 162.364C273.527 162.364 272.175 162.614 271.016 163.114C269.868 163.614 268.97 164.301 268.323 165.176C267.686 166.051 267.368 167.045 267.368 168.159C267.368 169.091 267.59 169.892 268.033 170.562C268.487 171.222 269.067 171.773 269.771 172.216C270.476 172.648 271.215 173.006 271.987 173.29C272.76 173.562 273.47 173.784 274.118 173.955L277.664 174.909C278.573 175.148 279.584 175.477 280.698 175.898C281.823 176.318 282.896 176.892 283.919 177.619C284.953 178.335 285.806 179.256 286.476 180.381C287.146 181.506 287.482 182.886 287.482 184.523C287.482 186.409 286.987 188.114 285.999 189.636C285.021 191.159 283.59 192.369 281.703 193.267C279.828 194.165 277.55 194.614 274.868 194.614C272.368 194.614 270.203 194.21 268.374 193.403C266.556 192.597 265.124 191.472 264.078 190.028C263.044 188.585 262.459 186.909 262.323 185H266.686C266.8 186.318 267.243 187.409 268.016 188.273C268.8 189.125 269.789 189.761 270.982 190.182C272.186 190.591 273.482 190.795 274.868 190.795C276.482 190.795 277.931 190.534 279.215 190.011C280.499 189.477 281.516 188.739 282.266 187.795C283.016 186.841 283.391 185.727 283.391 184.455C283.391 183.295 283.067 182.352 282.419 181.625C281.771 180.898 280.919 180.307 279.862 179.852C278.806 179.398 277.664 179 276.436 178.659L272.141 177.432C269.414 176.648 267.254 175.528 265.664 174.074C264.073 172.619 263.277 170.716 263.277 168.364C263.277 166.409 263.806 164.705 264.862 163.25C265.931 161.784 267.362 160.648 269.158 159.841C270.965 159.023 272.982 158.614 275.209 158.614C277.459 158.614 279.459 159.017 281.209 159.824C282.959 160.619 284.345 161.71 285.368 163.097C286.402 164.483 286.948 166.057 287.004 167.818H282.914Z" fill="currentColor"/>
</svg>
