<?xml version="1.0" encoding="utf-8"?>
<!-- Generator: Adobe Illustrator 28.0.0, SVG Export Plug-In . SVG Version: 6.00 Build 0)  -->
<svg version="1.1" id="Layer_1" xmlns="http://www.w3.org/2000/svg" xmlns:xlink="http://www.w3.org/1999/xlink" x="0px" y="0px"
	 viewBox="0 0 200 200" style="enable-background:new 0 0 200 200;" xml:space="preserve">
<g>
	<path d="M93.8,156.2c-3.8-10.5-11.1-16.1-22.1-17c-1.8-11.5-8.3-18.7-19.4-21.2c-0.9-3.6-1.2-7.3-2.6-10.6
		c-5-12-18.8-17.2-30.6-11.8c-1.4,0.6-2.1,0.5-3.1-0.5C-11,69-2.8,23.2,33.5,10.1c20-7.2,38.1-2.8,53.7,11.6
		c0.8,0.7,1.5,1.6,2.4,2.6c-6.1,6-12.1,11.9-18.4,18.1c8.4,7.1,14.3,16.7,24.6,21.3c10,4.5,19.9,4,29.6-1c1.5-0.8,2.3-0.8,3.5,0.5
		c14.1,14.2,28.2,28.3,42.3,42.4c3.2,3.2,3.8,6.8,1.8,10.4c-1.9,3.4-5.4,5-9.3,3.9c-1.7-0.5-3.4-1.7-4.7-3
		c-10-9.8-19.8-19.7-29.7-29.6c-0.7-0.7-1-1.6-1.4-2.3c-4,4-7.4,7.3-11,10.9c5.3,5.2,10.6,10.5,16,15.8c5.4,5.4,10.9,10.7,16.2,16.2
		c4.9,5,3.1,12.4-3.3,14.3c-3.6,1-6.4-0.4-8.9-2.9c-7.8-7.9-15.7-15.7-23.5-23.6c-2.7-2.8-5.4-5.6-8.1-8.3c-3.6,3.6-7,7-10.6,10.6
		c5.9,5.8,11.8,11.7,17.7,17.5c4.9,4.9,9.9,9.7,14.7,14.7c4.5,4.7,3.1,11.5-2.7,13.9c-3.1,1.3-6,0.7-8.3-1.4
		C109.8,156.6,102.4,154.6,93.8,156.2z"/>
	<path d="M183.3,96.9c-18.9-18.9-37.1-37.1-55.5-55.5c-5.4,6-11,11.4-19.9,10.6c-6.7-0.6-11.4-4.6-15.5-9.6
		c7.2-7.2,14.3-14.5,21.5-21.5c2.6-2.5,5.5-4.8,8.7-6.6c32.6-19.3,72.8,1.5,77,37.4c1.9,16.3-3,30.4-14.2,42.4
		C184.7,94.8,184.2,95.7,183.3,96.9z"/>
	<path d="M33.8,147.5c0.1-0.7,0-1.2,0.1-1.7c0.7-3.7,9.2-12.3,13-13c3.4-0.6,6.8,0.8,8.5,3.7c1.9,3.1,1.9,6.8-0.4,9.5
		c-2.4,2.8-5.1,5.5-7.9,7.9c-2.5,2.2-5.5,2.4-8.5,0.9C35.6,153.2,34,150.7,33.8,147.5z"/>
	<path d="M84.9,184.5c0.1-0.5,0-1.6,0.5-2.3c3-4.7,6.5-9,11.7-11.3c3.3-1.5,7.3,0.1,9.3,3.2c2,2.9,1.9,7.1-0.4,9.7
		c-2.4,2.7-5,5.3-7.7,7.7c-2.6,2.2-5.7,2.4-8.8,1C86.6,190.9,85,188.4,84.9,184.5z"/>
	<path d="M36.9,116.8c-0.1,0.5,0,1.4-0.4,2c-2.9,5.2-6.7,9.5-12.1,11.9c-3.2,1.4-7-0.3-9-3.3c-2-2.9-2.1-6.7,0.3-9.4
		c2.5-2.9,5.2-5.6,8-8.1c2.5-2.2,5.7-2.2,8.6-0.8C35.2,110.5,36.8,113.2,36.9,116.8z"/>
	<path d="M56.8,168c0.2-0.6,0.2-2.3,1-3.2c3.1-3.4,6.1-6.9,9.7-9.6c3-2.4,7.5-1.3,10.1,1.6c2.7,3,3,7.5,0.5,10.5
		c-2.4,2.8-5,5.5-7.9,7.9c-2.6,2.2-5.7,2.5-8.8,0.9C58.5,174.6,56.9,172.1,56.8,168z"/>
</g>
</svg>
